<svg xmlns="http://www.w3.org/2000/svg" xmlns:xlink="http://www.w3.org/1999/xlink" preserveAspectRatio="xMidYMid meet" version="1.0" viewBox="0.0 0.0 499.9 63.5" zoomAndPan="magnify" style="fill: rgb(0, 0, 0);" original_string_length="4650"><g id="__id1_sun9dcvhy"><path d="M266.7,7.1c1.1-0.3,2.2-0.9,3.3-0.9c2.3,0,4.5,0.7,6.8-0.2c0.7-0.3,1.7-0.1,2.5,0.1 c3.9,1.1,7.9,0.9,11.9,0.9c12.9,0,25.7,0.2,38.6,0.1c11.4,0,22.9-0.2,34.3-0.3c10-0.1,20-0.1,30-0.2c2,0,4.1,0.1,6-0.4 c3.7-1.1,7.4-1,11-0.3c6.6,1.3,13.1,0.9,19.7-0.2c2.7,0.3,5.5,0.7,8.4,1c2.5,0.3,5.1-0.4,7.7,0.9c-1.4,3.1-4.7,2.4-7.6,3.7 c13.1,0.9,25.3,1.7,37.7,2.6c1.4,0.8,2.8,1.7,4.3,2.5c6.8,1.5,6.8,1.5,10.2,3.8c-3.9,1.5-8,0.6-12,1.4c-0.4,0.2-1,0.5-1.4,0.7 c-0.5,0.3-0.9,0.6-1.4,0.9c-1.6-0.6-3.1-1.2-4.8-1.7c-0.8-0.2-1.6,0.1-1.8,1.2c2.8,2.6,2.8,2.6,16.4,5.7c-2.6,2.5-2.6,2.5-8.5,3.3 c0.4,0.2,0.7,0.4,1,0.4c3.3,0.8,6.5,2.1,10,2.1c1.6,0,3.2,0.9,4.8,1.5c0.4,0.1,0.5,0.8,0.8,1.2c-2.1,1.1-4.6,0.1-6.6,1.8 c1.8,1.8,4.2,1,6.3,1.4c1.9,0.4,3.9,0.7,5.6,1.8c-0.7,1.2-2.1,0.7-3.4,1.5c-0.4,0.6-1,1.5-1.8,2.6c-7.7,1.6-15.8,0.4-24.1,1.2 c2.1,1.4,4.1,0.8,6,0.9c1.7,0.1,3.4,0,5.1,0.2c1.9,0.2,4-0.4,6.3,0.9c-4.4,0.2-8.4,0.5-12.2,0.7c-1.3,1-2.5,1.8-4,2.9 c-2.7,0.1-5.9,0.2-9,0.2c-8,0.1-16,0.1-24,0.3c-1.7,0-3.4-0.3-4.9,1.1v3.3c-2.9,1.8-6.2,0.7-9.3,1.4c-0.3,1,1.1,1,1.1,1.9 c-0.4,0.1-0.9,0.4-1.4,0.4c-9.7,0.1-19.4,0.3-29.2,0.3c-2.6,0-5.1-0.4-7.9-0.6c-2-0.7-4.2-1.4-6-2.1c-0.9-0.1-1.5-0.2-2.1-0.2 c-18.6-0.1-37.1-0.2-55.7-0.2c-16.9,0-33.7,0.2-50.6,0.2c-2.5,0-5.1-0.6-8-1c-1.8,0.2-4.1,0.7-6.4,0.7c-6,0-12,0.3-17.9-1 c-0.8-0.2-1.7-0.2-2.6-0.2c-8.9-0.1-17.7-0.2-26.6-0.2c-0.5,0-1,0.4-1.6,0.6c0.4,0.3,0.8,0.7,1.2,0.7c3.4,0.1,6.8,0.2,10.3,0.2 c3.1,0,6.3,0,9.4,0c0.9,0,1.8-0.1,2.6,0.2c6.1,2.3,12.4,1.4,18.7,1.5c8.8,0.2,17.7-0.2,26.5,0.3c0.4,0,0.9,0.3,1.3,0.5 c-0.6,0.1-1.1,0.4-1.7,0.4c-17.7-0.2-35.4,0.2-53.1-0.7c-4-0.2-7.9-1-11.9-0.7c-4.3,0.3-8.6-0.1-12.9-0.1c-4,0-8,0-12-0.1 c-4,0-8-0.1-12-0.1c-14,0-28-0.1-42-0.1c-2.2,0-4.4-0.1-6.5-0.4c17.4-0.7,34.8,0.4,52.2-1.3c0.1,0,0.3-0.3,0.4-0.5 c-0.2-0.2-0.5-0.5-0.7-0.5c-27.4-1.4-54.9-0.3-82.3,0.1c-11.7,0.2-23.4,1.1-35.8,2c3.8,1.5,7,0.7,10.1,1c3.4,0.3,6.9,0.1,10.3,0.3 c3,0.2,6-0.3,10.7,0.7c-8.8,0.4-16,0.4-23.1,1c-7.1,0.7-14.2,1.2-21.4,1.3c-4.9,0.1-9.7-0.1-14.5-1.1c-2.5-0.5-5.1-0.6-7.7-0.9 c-0.8-0.1-1.6-0.6-2.6-1c0.3-0.8,0.3-1.9,0.8-2.2c1.7-1,3.5-1.7,5.8-2.8c-2.9-0.3-5.5-0.4-7.9-1c-2.8-0.6-5.4-1.7-8-2.5 c-0.8-0.9-0.4-1.5,0.4-2c0.6-0.4,1.2-0.9,2.3-1.7C11,46.9,5,47.7,0,45.1v-4.6c0.2-0.4,0.3-0.7,0.5-0.9c1.8-1.3,3.6-2.7,5.1-4.4 c0.7-0.7,2.1-0.8,2.9-1.1c1.6-1.1,1.3-2.7,1.6-4c1.6-1.3,4.2-0.4,5.3-2.6c-0.8-3.4-4.1-4.2-6.6-5.9c-0.1-0.5-0.2-1.1-0.1-1.6 c0.1-0.5,0.4-1,0.7-1.6c1.9-1.4,4.3-1.1,6.4-1.9c1.9-0.7,3.8-1.4,4.3-1.6c5.1-0.9,8.7-1.6,12.3-2.2c2.3-0.3,4.5-0.4,6.8-0.6 c5.1-0.4,10.3-0.8,15.4-1c5.4-0.3,10.9-0.5,16.3-0.7c8.6-0.3,17.1-0.7,25.7-1c7.1-0.2,14.3-0.4,21.4-0.5c12.6-0.2,25.2-0.1,37.7-0.6 c8.6-0.3,17.1,0.4,25.7-0.5c6.8,0.8,13.7,0.4,20.6,0.5c16,0.2,32,0.4,48,0.6c1.4,0,2.9,0,4.3,0.2c9.6,1.7,19.4,1.1,29.1,1.4 c3.1,0.1,6.3-0.2,9.4,0.6c1.1,0.3,2.3,0.2,3.4,0.2c5.4-0.2,10.9-0.5,16.2,0.5c8.2-0.5,16.5,1.2,24.7-0.9c1.3-0.4,2.8-0.3,4.4-0.4 c-0.3-1.2-1.1-1-1.6-1c-4-0.2-8-0.5-12-0.5c-17.2-0.1-34.3-0.1-51.5-0.2c-2.6,0-5.1,0-7.6,0c-0.8-0.7-1.5-1.2-2.1-1.8L266.7,7.1z M266.7,7.1c-1.1-0.4-2.1-1-3.2-1.1c-3.1-0.2-6.3-0.3-9.4-0.4c-8.9-0.2-17.7-0.3-26.6-0.5c-0.6,0-1.2-0.4-3.2-1c4-0.3,6.5-0.6,9-0.6 c6.3-0.1,12.6-0.4,18.9-0.1c16,0.6,32,0.2,48,0.4c10.3,0.1,20.6,0.2,30.8,0.2c20.3,0.1,40.6,0.1,60.9,0.1c9.1,0,18.3-0.3,27.4-0.3 c17.4-0.1,34.9-0.2,52.3-0.4c1.3,0,2.6-0.1,3.9-0.2c-1.7-0.6-3.4-0.7-5.1-0.7c-10.3-0.1-20.6,0-30.9-0.1 c-28.6-0.3-57.2-0.4-85.8-0.2c-17.4,0.1-34.9,0.2-52.3,0.2c-13.1,0-26.3-0.2-39.4-0.4c-5.1-0.1-10.3,0.3-15.4-0.9 c-1.4-0.3-2.8-0.2-4.3-0.2c-5.4-0.1-10.9-0.3-16.3-0.3C212.5,0.2,198.8,0.1,185,0c-5.1,0-10.3,0-15.4,0c-14.9,0.1-29.7,0.2-44.6,0.4 c-8.3,0.1-16.6-0.1-24.9,0.6c-6.3,0.5-12.5,0.7-18.8,0.9C75.9,2,70.5,2.1,65.1,2.1c-5.4,0.1-10.8,0.6-16.5,2.5 c3.2,0.5,6,0.7,8.6,0.1c4.2-1,8.5-0.8,12.8-1c8.9-0.2,17.7-0.4,26.6-0.6c2.3-0.1,4.6-0.1,6.8-0.5c3.1-0.6,6.2-0.6,9.4-0.6 c23.4,0,46.9,0.2,70.3,0c9.7-0.1,19.4,0.5,29.1,0.4c0.3,0,0.5,0.5,1.1,1.1c-4.9,0.1-9.5,0.3-14,0.4c-4.6,0-9.1-0.1-13.7-0.1 c-4.6,0-9.1,0.2-13.7,0.2c-4.6,0.1-9.2,0-13.7,0.2c-4.3,0.2-8.7-0.6-14.9,0.7C151,5,156.7,5,162.4,5c11.7,0.1,23.4,0.1,35.2,0.3 c3.4,0.1,6.9-0.2,10.2,0.8c3.1,1,6.2,1.1,9.3,1.1c13.4,0,26.9,0,40.3-0.1c3.1,0,6.3-0.2,9.4-0.3L266.7,7.1z M84.7,6.7 c6.7-0.1,13.5-0.2,20.2-0.3C97.9,6,90.8,6,83.7,6c-0.2,0-0.4,0.3-0.6,0.4C83.6,6.5,84.2,6.7,84.7,6.7 M55.1,7.5c-1.7,0-3.4-0.1-5,0 c-1.4,0.1-2.9-0.2-5.4,1c5.9-0.1,10.7,0.2,15.5-0.9C58.4,7.6,56.7,7.5,55.1,7.5" style="fill: rgb(21, 128, 61);"/></g></svg>